<svg xmlns="http://www.w3.org/2000/svg" viewBox="0 0 64 64" role="img" aria-labelledby="title desc">
  <title id="title">YourPlaces logo</title>
  <desc id="desc">A location pin with a small heart-shaped route marker.</desc>
  <rect width="64" height="64" rx="14" fill="#ff0055"/>
  <path
    fill="#ffffff"
    d="M32 7c-11 0-20 8.9-20 19.9 0 14.7 20 30.1 20 30.1s20-15.4 20-30.1C52 15.9 43 7 32 7zm0 29.2a9.4 9.4 0 1 1 0-18.8 9.4 9.4 0 0 1 0 18.8z"
  />
  <path
    fill="#ffd900"
    d="M32 21.3c-3.1-3.2-8.6-1-8.6 3.6 0 4.7 8.6 9.8 8.6 9.8s8.6-5.1 8.6-9.8c0-4.6-5.5-6.8-8.6-3.6z"
  />
</svg>
